<?xml version="1.0" encoding="utf-8" standalone="no"?>
<!DOCTYPE svg PUBLIC "-//W3C//DTD SVG 1.1//EN"
  "http://www.w3.org/Graphics/SVG/1.1/DTD/svg11.dtd">
<svg xmlns:xlink="http://www.w3.org/1999/xlink" width="549.127873pt" height="338.4pt" viewBox="0 0 549.127873 338.4" xmlns="http://www.w3.org/2000/svg" version="1.1">
 <metadata>
  <rdf:RDF xmlns:dc="http://purl.org/dc/elements/1.1/" xmlns:cc="http://creativecommons.org/ns#" xmlns:rdf="http://www.w3.org/1999/02/22-rdf-syntax-ns#">
   <cc:Work>
    <dc:type rdf:resource="http://purl.org/dc/dcmitype/StillImage"/>
    <dc:date>2026-06-23T22:13:03.366953</dc:date>
    <dc:format>image/svg+xml</dc:format>
    <dc:creator>
     <cc:Agent>
      <dc:title>Matplotlib v3.10.9, https://matplotlib.org/</dc:title>
     </cc:Agent>
    </dc:creator>
   </cc:Work>
  </rdf:RDF>
 </metadata>
 <defs>
  <style type="text/css">*{stroke-linejoin: round; stroke-linecap: butt}</style>
 </defs>
 <g id="figure_1">
  <g id="patch_1">
   <path d="M 0 338.4 
L 549.127873 338.4 
L 549.127873 0 
L 0 0 
L 0 338.4 
z
" style="fill: none; opacity: 0"/>
  </g>
  <g id="patch_2">
   <path d="M 22.92729 331.2 
L 526.200582 331.2 
Q 541.927873 331.2 541.927873 321.48 
L 541.927873 16.92 
Q 541.927873 7.2 526.200582 7.2 
L 22.92729 7.2 
Q 7.2 7.2 7.2 16.92 
L 7.2 321.48 
Q 7.2 331.2 22.92729 331.2 
z
" style="fill-opacity: 0.72"/>
  </g>
  <g id="axes_1">
   <g id="patch_3">
    <path d="M 184.203766 115.226091 
C 175.2565 105.698222 164.078904 98.542978 151.680371 94.40652 
C 139.28184 90.270057 126.047172 89.280754 113.171455 91.527923 
C 100.295738 93.775096 88.17861 99.189008 77.914247 107.280774 
C 67.649886 115.372539 59.556851 125.89105 54.365992 137.886418 
C 49.175132 149.881786 47.047531 162.981748 48.175326 176.003344 
C 49.303116 189.024939 53.651296 201.564045 60.827213 212.488333 
C 68.003131 223.412621 77.784073 232.383061 89.286801 238.589597 
C 100.789529 244.796134 113.65706 248.046149 126.727403 248.046149 
L 126.727405 208.623075 
C 120.192233 208.623075 113.758468 206.998067 108.007104 203.894799 
C 102.25574 200.79153 97.365269 196.30631 93.77731 190.844167 
C 90.189351 185.382023 88.015261 179.112469 87.451366 172.601672 
C 86.887469 166.090874 87.951269 159.540893 90.546699 153.543209 
C 93.142129 147.545525 97.188646 142.28627 102.320827 138.240387 
C 107.453008 134.194504 113.511572 131.487548 119.949431 130.363961 
C 126.387289 129.240377 133.004623 129.735029 139.203889 131.80326 
C 145.403155 133.871489 150.991953 137.449111 155.465586 142.213045 
z
" style="fill: #fcd116; stroke: #ffffff; stroke-width: 2.5; stroke-linejoin: miter"/>
   </g>
   <g id="patch_4">
    <path d="M 173.072005 232.98788 
C 182.123461 226.411612 189.672362 217.98344 195.215659 208.265003 
C 200.758955 198.546566 204.170736 187.758618 205.223638 176.620057 
C 206.27654 165.481496 204.946653 154.245367 201.322597 143.660361 
C 197.69854 133.075356 191.862628 123.381949 184.203766 115.226091 
L 155.465586 142.213045 
C 159.295017 146.290975 162.212974 151.137678 164.025002 156.430181 
C 165.83703 161.722684 166.501974 167.340748 165.975522 172.910028 
C 165.449071 178.479309 163.743181 183.873283 160.971533 188.732501 
C 158.199885 193.59172 154.425434 197.805806 149.899706 201.09394 
z
" style="fill: #0057a8; stroke: #ffffff; stroke-width: 2.5; stroke-linejoin: miter"/>
   </g>
   <g id="patch_5">
    <path d="M 126.727418 248.046149 
C 135.001105 248.046149 143.223447 246.743858 151.092191 244.18715 
C 158.960935 241.630443 166.378449 237.851032 173.072005 232.98788 
L 149.899706 201.09394 
C 146.552928 203.525516 142.844171 205.415221 138.909799 206.693575 
C 134.975427 207.971929 130.864256 208.623075 126.727412 208.623075 
z
" style="fill: #00a896; stroke: #ffffff; stroke-width: 2.5; stroke-linejoin: miter"/>
   </g>
   <g id="matplotlib.axis_1"/>
   <g id="matplotlib.axis_2"/>
  </g>
  <g id="axes_2">
   <g id="text_1">
    <!-- POSSESSION -->
    <g style="fill: #ffffff" transform="translate(248.938938 81.130812) scale(0.19 -0.19)">
     <defs>
      <path id="DejaVuSans-Bold-50" d="M 588 4666 
L 2584 4666 
Q 3475 4666 3951 4270 
Q 4428 3875 4428 3144 
Q 4428 2409 3951 2014 
Q 3475 1619 2584 1619 
L 1791 1619 
L 1791 0 
L 588 0 
L 588 4666 
z
M 1791 3794 
L 1791 2491 
L 2456 2491 
Q 2806 2491 2997 2661 
Q 3188 2831 3188 3144 
Q 3188 3456 2997 3625 
Q 2806 3794 2456 3794 
L 1791 3794 
z
" transform="scale(0.015625)"/>
      <path id="DejaVuSans-Bold-4f" d="M 2719 3878 
Q 2169 3878 1866 3472 
Q 1563 3066 1563 2328 
Q 1563 1594 1866 1187 
Q 2169 781 2719 781 
Q 3272 781 3575 1187 
Q 3878 1594 3878 2328 
Q 3878 3066 3575 3472 
Q 3272 3878 2719 3878 
z
M 2719 4750 
Q 3844 4750 4481 4106 
Q 5119 3463 5119 2328 
Q 5119 1197 4481 553 
Q 3844 -91 2719 -91 
Q 1597 -91 958 553 
Q 319 1197 319 2328 
Q 319 3463 958 4106 
Q 1597 4750 2719 4750 
z
" transform="scale(0.015625)"/>
      <path id="DejaVuSans-Bold-53" d="M 3834 4519 
L 3834 3531 
Q 3450 3703 3084 3790 
Q 2719 3878 2394 3878 
Q 1963 3878 1756 3759 
Q 1550 3641 1550 3391 
Q 1550 3203 1689 3098 
Q 1828 2994 2194 2919 
L 2706 2816 
Q 3484 2659 3812 2340 
Q 4141 2022 4141 1434 
Q 4141 663 3683 286 
Q 3225 -91 2284 -91 
Q 1841 -91 1394 -6 
Q 947 78 500 244 
L 500 1259 
Q 947 1022 1364 901 
Q 1781 781 2169 781 
Q 2563 781 2772 912 
Q 2981 1044 2981 1288 
Q 2981 1506 2839 1625 
Q 2697 1744 2272 1838 
L 1806 1941 
Q 1106 2091 782 2419 
Q 459 2747 459 3303 
Q 459 4000 909 4375 
Q 1359 4750 2203 4750 
Q 2588 4750 2994 4692 
Q 3400 4634 3834 4519 
z
" transform="scale(0.015625)"/>
      <path id="DejaVuSans-Bold-45" d="M 588 4666 
L 3834 4666 
L 3834 3756 
L 1791 3756 
L 1791 2888 
L 3713 2888 
L 3713 1978 
L 1791 1978 
L 1791 909 
L 3903 909 
L 3903 0 
L 588 0 
L 588 4666 
z
" transform="scale(0.015625)"/>
      <path id="DejaVuSans-Bold-49" d="M 588 4666 
L 1791 4666 
L 1791 0 
L 588 0 
L 588 4666 
z
" transform="scale(0.015625)"/>
      <path id="DejaVuSans-Bold-4e" d="M 588 4666 
L 1931 4666 
L 3628 1466 
L 3628 4666 
L 4769 4666 
L 4769 0 
L 3425 0 
L 1728 3200 
L 1728 0 
L 588 0 
L 588 4666 
z
" transform="scale(0.015625)"/>
     </defs>
     <use xlink:href="#DejaVuSans-Bold-50"/>
     <use xlink:href="#DejaVuSans-Bold-4f" transform="translate(73.291016 0)"/>
     <use xlink:href="#DejaVuSans-Bold-53" transform="translate(158.300781 0)"/>
     <use xlink:href="#DejaVuSans-Bold-53" transform="translate(225.822266 0)"/>
     <use xlink:href="#DejaVuSans-Bold-45" transform="translate(297.84375 0)"/>
     <use xlink:href="#DejaVuSans-Bold-53" transform="translate(366.154297 0)"/>
     <use xlink:href="#DejaVuSans-Bold-53" transform="translate(433.675781 0)"/>
     <use xlink:href="#DejaVuSans-Bold-49" transform="translate(505.697266 0)"/>
     <use xlink:href="#DejaVuSans-Bold-4f" transform="translate(542.904297 0)"/>
     <use xlink:href="#DejaVuSans-Bold-4e" transform="translate(627.914062 0)"/>
    </g>
   </g>
   <g id="text_2">
    <!-- COL -->
    <g style="fill: #ffffff" transform="translate(290.333166 144.455) scale(0.16 -0.16)">
     <defs>
      <path id="DejaVuSans-43" d="M 4122 4306 
L 4122 3641 
Q 3803 3938 3442 4084 
Q 3081 4231 2675 4231 
Q 1875 4231 1450 3742 
Q 1025 3253 1025 2328 
Q 1025 1406 1450 917 
Q 1875 428 2675 428 
Q 3081 428 3442 575 
Q 3803 722 4122 1019 
L 4122 359 
Q 3791 134 3420 21 
Q 3050 -91 2638 -91 
Q 1578 -91 968 557 
Q 359 1206 359 2328 
Q 359 3453 968 4101 
Q 1578 4750 2638 4750 
Q 3056 4750 3426 4639 
Q 3797 4528 4122 4306 
z
" transform="scale(0.015625)"/>
      <path id="DejaVuSans-4f" d="M 2522 4238 
Q 1834 4238 1429 3725 
Q 1025 3213 1025 2328 
Q 1025 1447 1429 934 
Q 1834 422 2522 422 
Q 3209 422 3611 934 
Q 4013 1447 4013 2328 
Q 4013 3213 3611 3725 
Q 3209 4238 2522 4238 
z
M 2522 4750 
Q 3503 4750 4090 4092 
Q 4678 3434 4678 2328 
Q 4678 1225 4090 567 
Q 3503 -91 2522 -91 
Q 1538 -91 948 565 
Q 359 1222 359 2328 
Q 359 3434 948 4092 
Q 1538 4750 2522 4750 
z
" transform="scale(0.015625)"/>
      <path id="DejaVuSans-4c" d="M 628 4666 
L 1259 4666 
L 1259 531 
L 3531 531 
L 3531 0 
L 628 0 
L 628 4666 
z
" transform="scale(0.015625)"/>
     </defs>
     <use xlink:href="#DejaVuSans-43"/>
     <use xlink:href="#DejaVuSans-4f" transform="translate(69.824219 0)"/>
     <use xlink:href="#DejaVuSans-4c" transform="translate(148.535156 0)"/>
    </g>
   </g>
   <g id="text_3">
    <!-- 63% -->
    <g style="fill: #ffffff" transform="translate(438.169696 144.455) scale(0.16 -0.16)">
     <defs>
      <path id="DejaVuSans-Bold-36" d="M 2316 2303 
Q 2000 2303 1842 2098 
Q 1684 1894 1684 1484 
Q 1684 1075 1842 870 
Q 2000 666 2316 666 
Q 2634 666 2792 870 
Q 2950 1075 2950 1484 
Q 2950 1894 2792 2098 
Q 2634 2303 2316 2303 
z
M 3803 4544 
L 3803 3681 
Q 3506 3822 3243 3889 
Q 2981 3956 2731 3956 
Q 2194 3956 1894 3657 
Q 1594 3359 1544 2772 
Q 1750 2925 1990 3001 
Q 2231 3078 2516 3078 
Q 3231 3078 3670 2659 
Q 4109 2241 4109 1563 
Q 4109 813 3618 361 
Q 3128 -91 2303 -91 
Q 1394 -91 895 523 
Q 397 1138 397 2266 
Q 397 3422 980 4083 
Q 1563 4744 2578 4744 
Q 2900 4744 3203 4694 
Q 3506 4644 3803 4544 
z
" transform="scale(0.015625)"/>
      <path id="DejaVuSans-Bold-33" d="M 2981 2516 
Q 3453 2394 3698 2092 
Q 3944 1791 3944 1325 
Q 3944 631 3412 270 
Q 2881 -91 1863 -91 
Q 1503 -91 1142 -33 
Q 781 25 428 141 
L 428 1069 
Q 766 900 1098 814 
Q 1431 728 1753 728 
Q 2231 728 2486 893 
Q 2741 1059 2741 1369 
Q 2741 1688 2480 1852 
Q 2219 2016 1709 2016 
L 1228 2016 
L 1228 2791 
L 1734 2791 
Q 2188 2791 2409 2933 
Q 2631 3075 2631 3366 
Q 2631 3634 2415 3781 
Q 2200 3928 1806 3928 
Q 1516 3928 1219 3862 
Q 922 3797 628 3669 
L 628 4550 
Q 984 4650 1334 4700 
Q 1684 4750 2022 4750 
Q 2931 4750 3382 4451 
Q 3834 4153 3834 3553 
Q 3834 3144 3618 2883 
Q 3403 2622 2981 2516 
z
" transform="scale(0.015625)"/>
      <path id="DejaVuSans-Bold-25" d="M 4959 1925 
Q 4738 1925 4616 1733 
Q 4494 1541 4494 1184 
Q 4494 825 4614 633 
Q 4734 441 4959 441 
Q 5184 441 5303 633 
Q 5422 825 5422 1184 
Q 5422 1541 5301 1733 
Q 5181 1925 4959 1925 
z
M 4959 2450 
Q 5541 2450 5875 2112 
Q 6209 1775 6209 1184 
Q 6209 594 5875 251 
Q 5541 -91 4959 -91 
Q 4378 -91 4042 251 
Q 3706 594 3706 1184 
Q 3706 1772 4042 2111 
Q 4378 2450 4959 2450 
z
M 2094 -91 
L 1403 -91 
L 4319 4750 
L 5013 4750 
L 2094 -91 
z
M 1453 4750 
Q 2034 4750 2367 4411 
Q 2700 4072 2700 3481 
Q 2700 2891 2367 2550 
Q 2034 2209 1453 2209 
Q 872 2209 539 2550 
Q 206 2891 206 3481 
Q 206 4072 539 4411 
Q 872 4750 1453 4750 
z
M 1453 4225 
Q 1228 4225 1106 4031 
Q 984 3838 984 3481 
Q 984 3122 1106 2926 
Q 1228 2731 1453 2731 
Q 1678 2731 1798 2926 
Q 1919 3122 1919 3481 
Q 1919 3838 1797 4031 
Q 1675 4225 1453 4225 
z
" transform="scale(0.015625)"/>
     </defs>
     <use xlink:href="#DejaVuSans-Bold-36"/>
     <use xlink:href="#DejaVuSans-Bold-33" transform="translate(69.580078 0)"/>
     <use xlink:href="#DejaVuSans-Bold-25" transform="translate(139.160156 0)"/>
    </g>
   </g>
   <g id="text_4">
    <!-- COD -->
    <g style="fill: #ffffff" transform="translate(290.333166 202.775) scale(0.16 -0.16)">
     <defs>
      <path id="DejaVuSans-44" d="M 1259 4147 
L 1259 519 
L 2022 519 
Q 2988 519 3436 956 
Q 3884 1394 3884 2338 
Q 3884 3275 3436 3711 
Q 2988 4147 2022 4147 
L 1259 4147 
z
M 628 4666 
L 1925 4666 
Q 3281 4666 3915 4102 
Q 4550 3538 4550 2338 
Q 4550 1131 3912 565 
Q 3275 0 1925 0 
L 628 0 
L 628 4666 
z
" transform="scale(0.015625)"/>
     </defs>
     <use xlink:href="#DejaVuSans-43"/>
     <use xlink:href="#DejaVuSans-4f" transform="translate(69.824219 0)"/>
     <use xlink:href="#DejaVuSans-44" transform="translate(148.535156 0)"/>
    </g>
   </g>
   <g id="text_5">
    <!-- 27% -->
    <g style="fill: #ffffff" transform="translate(438.169696 202.775) scale(0.16 -0.16)">
     <defs>
      <path id="DejaVuSans-Bold-32" d="M 1844 884 
L 3897 884 
L 3897 0 
L 506 0 
L 506 884 
L 2209 2388 
Q 2438 2594 2547 2791 
Q 2656 2988 2656 3200 
Q 2656 3528 2436 3728 
Q 2216 3928 1850 3928 
Q 1569 3928 1234 3808 
Q 900 3688 519 3450 
L 519 4475 
Q 925 4609 1322 4679 
Q 1719 4750 2100 4750 
Q 2938 4750 3402 4381 
Q 3866 4013 3866 3353 
Q 3866 2972 3669 2642 
Q 3472 2313 2841 1759 
L 1844 884 
z
" transform="scale(0.015625)"/>
      <path id="DejaVuSans-Bold-37" d="M 428 4666 
L 3944 4666 
L 3944 3988 
L 2125 0 
L 953 0 
L 2675 3781 
L 428 3781 
L 428 4666 
z
" transform="scale(0.015625)"/>
     </defs>
     <use xlink:href="#DejaVuSans-Bold-32"/>
     <use xlink:href="#DejaVuSans-Bold-37" transform="translate(69.580078 0)"/>
     <use xlink:href="#DejaVuSans-Bold-25" transform="translate(139.160156 0)"/>
    </g>
   </g>
   <g id="text_6">
    <!-- IN CONTEST -->
    <g style="fill: #ffffff" transform="translate(290.333166 261.095) scale(0.16 -0.16)">
     <defs>
      <path id="DejaVuSans-49" d="M 628 4666 
L 1259 4666 
L 1259 0 
L 628 0 
L 628 4666 
z
" transform="scale(0.015625)"/>
      <path id="DejaVuSans-4e" d="M 628 4666 
L 1478 4666 
L 3547 763 
L 3547 4666 
L 4159 4666 
L 4159 0 
L 3309 0 
L 1241 3903 
L 1241 0 
L 628 0 
L 628 4666 
z
" transform="scale(0.015625)"/>
      <path id="DejaVuSans-20" transform="scale(0.015625)"/>
      <path id="DejaVuSans-54" d="M -19 4666 
L 3928 4666 
L 3928 4134 
L 2272 4134 
L 2272 0 
L 1638 0 
L 1638 4134 
L -19 4134 
L -19 4666 
z
" transform="scale(0.015625)"/>
      <path id="DejaVuSans-45" d="M 628 4666 
L 3578 4666 
L 3578 4134 
L 1259 4134 
L 1259 2753 
L 3481 2753 
L 3481 2222 
L 1259 2222 
L 1259 531 
L 3634 531 
L 3634 0 
L 628 0 
L 628 4666 
z
" transform="scale(0.015625)"/>
      <path id="DejaVuSans-53" d="M 3425 4513 
L 3425 3897 
Q 3066 4069 2747 4153 
Q 2428 4238 2131 4238 
Q 1616 4238 1336 4038 
Q 1056 3838 1056 3469 
Q 1056 3159 1242 3001 
Q 1428 2844 1947 2747 
L 2328 2669 
Q 3034 2534 3370 2195 
Q 3706 1856 3706 1288 
Q 3706 609 3251 259 
Q 2797 -91 1919 -91 
Q 1588 -91 1214 -16 
Q 841 59 441 206 
L 441 856 
Q 825 641 1194 531 
Q 1563 422 1919 422 
Q 2459 422 2753 634 
Q 3047 847 3047 1241 
Q 3047 1584 2836 1778 
Q 2625 1972 2144 2069 
L 1759 2144 
Q 1053 2284 737 2584 
Q 422 2884 422 3419 
Q 422 4038 858 4394 
Q 1294 4750 2059 4750 
Q 2388 4750 2728 4690 
Q 3069 4631 3425 4513 
z
" transform="scale(0.015625)"/>
     </defs>
     <use xlink:href="#DejaVuSans-49"/>
     <use xlink:href="#DejaVuSans-4e" transform="translate(29.492188 0)"/>
     <use xlink:href="#DejaVuSans-20" transform="translate(104.296875 0)"/>
     <use xlink:href="#DejaVuSans-43" transform="translate(136.083984 0)"/>
     <use xlink:href="#DejaVuSans-4f" transform="translate(205.908203 0)"/>
     <use xlink:href="#DejaVuSans-4e" transform="translate(284.619141 0)"/>
     <use xlink:href="#DejaVuSans-54" transform="translate(359.423828 0)"/>
     <use xlink:href="#DejaVuSans-45" transform="translate(420.507812 0)"/>
     <use xlink:href="#DejaVuSans-53" transform="translate(483.691406 0)"/>
     <use xlink:href="#DejaVuSans-54" transform="translate(547.167969 0)"/>
    </g>
   </g>
   <g id="text_7">
    <!-- 10% -->
    <g style="fill: #ffffff" transform="translate(438.169696 261.095) scale(0.16 -0.16)">
     <defs>
      <path id="DejaVuSans-Bold-31" d="M 750 831 
L 1813 831 
L 1813 3847 
L 722 3622 
L 722 4441 
L 1806 4666 
L 2950 4666 
L 2950 831 
L 4013 831 
L 4013 0 
L 750 0 
L 750 831 
z
" transform="scale(0.015625)"/>
      <path id="DejaVuSans-Bold-30" d="M 2944 2338 
Q 2944 3213 2780 3570 
Q 2616 3928 2228 3928 
Q 1841 3928 1675 3570 
Q 1509 3213 1509 2338 
Q 1509 1453 1675 1090 
Q 1841 728 2228 728 
Q 2613 728 2778 1090 
Q 2944 1453 2944 2338 
z
M 4147 2328 
Q 4147 1169 3647 539 
Q 3147 -91 2228 -91 
Q 1306 -91 806 539 
Q 306 1169 306 2328 
Q 306 3491 806 4120 
Q 1306 4750 2228 4750 
Q 3147 4750 3647 4120 
Q 4147 3491 4147 2328 
z
" transform="scale(0.015625)"/>
     </defs>
     <use xlink:href="#DejaVuSans-Bold-31"/>
     <use xlink:href="#DejaVuSans-Bold-30" transform="translate(69.580078 0)"/>
     <use xlink:href="#DejaVuSans-Bold-25" transform="translate(139.160156 0)"/>
    </g>
   </g>
   <g id="line2d_1">
    <defs>
     <path id="m95ba3acc65" d="M 0 9.5 
C 2.519429 9.5 4.936009 8.49902 6.717514 6.717514 
C 8.49902 4.936009 9.5 2.519429 9.5 0 
C 9.5 -2.519429 8.49902 -4.936009 6.717514 -6.717514 
C 4.936009 -8.49902 2.519429 -9.5 0 -9.5 
C -2.519429 -9.5 -4.936009 -8.49902 -6.717514 -6.717514 
C -8.49902 -4.936009 -9.5 -2.519429 -9.5 0 
C -9.5 2.519429 -8.49902 4.936009 -6.717514 6.717514 
C -4.936009 8.49902 -2.519429 9.5 0 9.5 
z
" style="stroke: #ffffff"/>
    </defs>
    <g clip-path="url(#p3b3aa9bfcf)">
     <use xlink:href="#m95ba3acc65" x="254.852399" y="140.04" style="fill: #ffffff; stroke: #ffffff"/>
    </g>
   </g>
   <g id="line2d_2">
    <g clip-path="url(#p3b3aa9bfcf)">
     <use xlink:href="#m95ba3acc65" x="254.852399" y="198.36" style="fill: #ffffff; stroke: #ffffff"/>
    </g>
   </g>
   <g id="line2d_3">
    <g clip-path="url(#p3b3aa9bfcf)">
     <use xlink:href="#m95ba3acc65" x="254.852399" y="256.68" style="fill: #ffffff; stroke: #ffffff"/>
    </g>
   </g>
   <g id="line2d_4">
    <defs>
     <path id="m699b488410" d="M 0 7 
C 1.856422 7 3.637059 6.262436 4.949747 4.949747 
C 6.262436 3.637059 7 1.856422 7 0 
C 7 -1.856422 6.262436 -3.637059 4.949747 -4.949747 
C 3.637059 -6.262436 1.856422 -7 0 -7 
C -1.856422 -7 -3.637059 -6.262436 -4.949747 -4.949747 
C -6.262436 -3.637059 -7 -1.856422 -7 0 
C -7 1.856422 -6.262436 3.637059 -4.949747 4.949747 
C -3.637059 6.262436 -1.856422 7 0 7 
z
" style="stroke: #fcd116"/>
    </defs>
    <g clip-path="url(#p3b3aa9bfcf)">
     <use xlink:href="#m699b488410" x="254.852399" y="140.04" style="fill: #fcd116; stroke: #fcd116"/>
    </g>
   </g>
   <g id="line2d_5">
    <defs>
     <path id="mcaf8846dcd" d="M 0 7 
C 1.856422 7 3.637059 6.262436 4.949747 4.949747 
C 6.262436 3.637059 7 1.856422 7 0 
C 7 -1.856422 6.262436 -3.637059 4.949747 -4.949747 
C 3.637059 -6.262436 1.856422 -7 0 -7 
C -1.856422 -7 -3.637059 -6.262436 -4.949747 -4.949747 
C -6.262436 -3.637059 -7 -1.856422 -7 0 
C -7 1.856422 -6.262436 3.637059 -4.949747 4.949747 
C -3.637059 6.262436 -1.856422 7 0 7 
z
" style="stroke: #0057a8"/>
    </defs>
    <g clip-path="url(#p3b3aa9bfcf)">
     <use xlink:href="#mcaf8846dcd" x="254.852399" y="198.36" style="fill: #0057a8; stroke: #0057a8"/>
    </g>
   </g>
   <g id="line2d_6">
    <defs>
     <path id="m5169174f55" d="M 0 7 
C 1.856422 7 3.637059 6.262436 4.949747 4.949747 
C 6.262436 3.637059 7 1.856422 7 0 
C 7 -1.856422 6.262436 -3.637059 4.949747 -4.949747 
C 3.637059 -6.262436 1.856422 -7 0 -7 
C -1.856422 -7 -3.637059 -6.262436 -4.949747 -4.949747 
C -6.262436 -3.637059 -7 -1.856422 -7 0 
C -7 1.856422 -6.262436 3.637059 -4.949747 4.949747 
C -3.637059 6.262436 -1.856422 7 0 7 
z
" style="stroke: #00a896"/>
    </defs>
    <g clip-path="url(#p3b3aa9bfcf)">
     <use xlink:href="#m5169174f55" x="254.852399" y="256.68" style="fill: #00a896; stroke: #00a896"/>
    </g>
   </g>
  </g>
 </g>
 <defs>
  <clipPath id="p3b3aa9bfcf">
   <rect x="225.285093" y="23.4" width="295.673059" height="291.6"/>
  </clipPath>
 </defs>
</svg>
